<svg xmlns="http://www.w3.org/2000/svg"  viewBox="0 0 100 100" width="100px" height="100px"><path d="M26.517,95c-6.341,0-11.5-5.159-11.5-11.5V58h-1.5 c-2.5,0-4.807-1.46-5.875-3.721c-1.069-2.257-0.736-4.965,0.847-6.898l11.479-14.004c1.235-1.509,3.066-2.378,5.021-2.38 c1.956,0,3.785,0.863,5.024,2.368L41.536,47.37c1.59,1.931,1.928,4.643,0.857,6.907C41.323,56.539,39.017,58,36.517,58h-1.5v17H69 v-2.5c0-3.584,2.916-6.5,6.5-6.5h7c3.584,0,6.5,2.916,6.5,6.5v11C89,89.841,83.841,95,77.5,95H26.517z" opacity=".35"/><path d="M78.994,73.006c-1.947,0-3.775-0.862-5.015-2.364L62.474,56.695 c-1.594-1.934-1.933-4.646-0.863-6.911c1.063-2.26,3.371-3.726,5.878-3.726h1.5v-17H35.006v2.5c0,3.584-2.916,6.5-6.5,6.5h-7 c-3.584,0-6.5-2.916-6.5-6.5v-11c0-6.341,5.159-11.5,11.5-11.5h50.982c6.341,0,11.5,5.159,11.5,11.5v25.5h1.5 c2.506,0,4.813,1.464,5.88,3.73c1.066,2.258,0.729,4.969-0.863,6.902L84.01,70.64C82.775,72.142,80.945,73.006,78.994,73.006z" opacity=".35"/><path fill="#f2f2f2" d="M94.368,47.789c-1.066-2.266-3.374-3.73-5.88-3.73h-1.5v-25.5c0-6.341-5.159-11.5-11.5-11.5H24.506 c-6.341,0-11.5,5.159-11.5,11.5v11c0,2.009,0.917,3.807,2.353,5l-8.87,10.822c-1.583,1.933-1.916,4.642-0.847,6.898 C6.71,54.54,9.017,56,11.517,56h1.5v25.5c0,6.341,5.159,11.5,11.5,11.5H75.5C81.841,93,87,87.841,87,81.5v-11 c0-2.023-0.929-3.832-2.382-5.025l8.887-10.784C95.097,52.758,95.435,50.047,94.368,47.789z"/><path fill="#70bfff" d="M73.5,78.5c0,0.552-0.448,1-1,1H27.517c-0.552,0-1-0.448-1-1v-29h8L22.994,35.497L11.517,49.5h8v32 c0,2.761,2.239,5,5,5H75.5c2.761,0,5-2.239,5-5v-11h-7V78.5z"/><path fill="#70bfff" d="M26.506,21.559c0-0.552,0.448-1,1-1h44.983c0.552,0,1,0.448,1,1v29h-8l11.506,13.947l11.494-13.947 h-8v-32c0-2.761-2.239-5-5-5H24.506c-2.761,0-5,2.239-5,5v11h7V21.559z"/><path fill="none" stroke="#40396e" stroke-linecap="round" stroke-linejoin="round" stroke-miterlimit="10" stroke-width="3" d="M73.5,78.5c0,0.552-0.448,1-1,1H27.517c-0.552,0-1-0.448-1-1v-29h8L22.994,35.497L11.517,49.5h8v32c0,2.761,2.239,5,5,5H75.5 c2.761,0,5-2.239,5-5v-11h-7V78.5z"/><path fill="none" stroke="#40396e" stroke-linecap="round" stroke-linejoin="round" stroke-miterlimit="10" stroke-width="3" d="M26.506,21.559c0-0.552,0.448-1,1-1h44.983c0.552,0,1,0.448,1,1v29h-8l11.506,13.947l11.494-13.947h-8v-32c0-2.761-2.239-5-5-5 H24.506c-2.761,0-5,2.239-5,5v11h7V21.559z"/></svg>